<?xml version="1.0" encoding="UTF-8" standalone="no"?>
<!-- Created with Inkscape (http://www.inkscape.org/) -->

<svg
   width="453.17035"
   height="55.600502"
   viewBox="0 0 119.90132 14.710966"
   version="1.1"
   id="svg5"
   inkscape:version="1.1.1 (3bf5ae0d25, 2021-09-20)"
   sodipodi:docname="logo-full-horizontal.svg"
   xmlns:inkscape="http://www.inkscape.org/namespaces/inkscape"
   xmlns:sodipodi="http://sodipodi.sourceforge.net/DTD/sodipodi-0.dtd"
   xmlns="http://www.w3.org/2000/svg"
   xmlns:svg="http://www.w3.org/2000/svg">
  <sodipodi:namedview
     id="namedview7"
     pagecolor="#505050"
     bordercolor="#eeeeee"
     borderopacity="1"
     inkscape:pageshadow="0"
     inkscape:pageopacity="0"
     inkscape:pagecheckerboard="0"
     inkscape:document-units="mm"
     showgrid="false"
     inkscape:zoom="2"
     inkscape:cx="86.25"
     inkscape:cy="21.25"
     inkscape:window-width="2560"
     inkscape:window-height="1057"
     inkscape:window-x="-8"
     inkscape:window-y="-8"
     inkscape:window-maximized="1"
     inkscape:current-layer="layer1"
     inkscape:snap-grids="true"
     inkscape:snap-text-baseline="false"
     units="px"
     height="100px"
     showguides="true"
     inkscape:guide-bbox="true"
     inkscape:object-nodes="false"
     inkscape:snap-nodes="true"
     inkscape:object-paths="true"
     inkscape:snap-bbox="true"
     inkscape:bbox-paths="true"
     inkscape:snap-to-guides="true"
     inkscape:snap-others="false">
    <sodipodi:guide
       position="112.7125,11.126097"
       orientation="0,-1"
       id="guide1042" />
    <sodipodi:guide
       position="115.62292,3.583085"
       orientation="0,-1"
       id="guide834" />
    <sodipodi:guide
       position="116.41774,5.0758996"
       orientation="1,0"
       id="guide55559" />
    <sodipodi:guide
       position="112.11288,13.925966"
       orientation="0,-1"
       id="guide56845" />
    <sodipodi:guide
       position="113.51605,0.78499971"
       orientation="0,-1"
       id="guide56847" />
    <sodipodi:guide
       position="20.565602,7.0711223"
       orientation="1,0"
       id="guide3118" />
  </sodipodi:namedview>
  <defs
     id="defs2">
    <rect
       x="144.25"
       y="2.9669292"
       width="307.25"
       height="56.53307"
       id="rect45868" />
  </defs>
  <g
     inkscape:label="Layer 1"
     inkscape:groupmode="layer"
     id="layer1"
     transform="translate(-9.4927076,-5.7429479)">
    <text
       xml:space="preserve"
       style="font-style:normal;font-weight:normal;font-size:10.5833px;line-height:1.25;font-family:sans-serif;letter-spacing:2.64583px;fill:#000000;fill-opacity:1;stroke:none;stroke-width:0.264583"
       x="5.7101765"
       y="16.901379"
       id="text29641"><tspan
         id="tspan29639"
         style="font-style:normal;font-variant:normal;font-weight:300;font-stretch:normal;font-size:10.5833px;font-family:'Open Sans';-inkscape-font-specification:'Open Sans Light';fill:#000000;fill-opacity:1;stroke-width:0.264583"
         x="5.7101765"
         y="16.901379"
         sodipodi:role="line" /></text>
    <text
       xml:space="preserve"
       style="font-style:normal;font-weight:normal;font-size:10.5833px;line-height:1.25;font-family:sans-serif;fill:#000000;fill-opacity:1;stroke:none;stroke-width:0.264583"
       x="47.8708"
       y="16.901445"
       id="text30929"><tspan
         sodipodi:role="line"
         id="tspan30927"
         style="font-style:normal;font-variant:normal;font-weight:bold;font-stretch:normal;font-family:'Open Sans';-inkscape-font-specification:'Open Sans Bold';stroke-width:0.264583"
         x="47.8708"
         y="16.901445" /></text>
    <rect
       style="fill:#000000;fill-opacity:0;stroke:#000000;stroke-width:1.57;stroke-miterlimit:4;stroke-dasharray:none;stroke-opacity:1"
       id="rect33406"
       width="82.473999"
       height="13.140966"
       x="46.135029"
       y="6.5279479" />
    <path
       style="fill:none;stroke:#000000;stroke-width:0.53;stroke-linecap:butt;stroke-linejoin:miter;stroke-miterlimit:4;stroke-dasharray:none;stroke-opacity:1"
       d="M 15.23431,9.6113755 12.560309,16.197375 9.8863102,9.6113755 Z"
       id="path8353"
       sodipodi:nodetypes="cccc" />
    <ellipse
       style="fill:none;fill-opacity:0;stroke:#000000;stroke-width:0.527338;stroke-miterlimit:4;stroke-dasharray:none;stroke-opacity:1"
       id="path32149"
       cx="22.28516"
       cy="13.123799"
       rx="3.513"
       ry="3.5131388" />
    <path
       style="fill:none;stroke:#000000;stroke-width:0.531;stroke-linecap:butt;stroke-linejoin:miter;stroke-miterlimit:4;stroke-dasharray:none;stroke-opacity:1"
       d="M 30.32381,16.901375 V 9.3463755"
       id="path33878"
       sodipodi:nodetypes="cc" />
    <path
       style="fill:none;stroke:#000000;stroke-width:0.53;stroke-linecap:butt;stroke-linejoin:miter;stroke-miterlimit:4;stroke-dasharray:none;stroke-opacity:1"
       d="m 35.636309,9.8367665 4.999001,3.2871555 -4.999437,3.286844 z"
       id="path36348"
       sodipodi:nodetypes="cccc" />
    <path
       style="fill:#000000;fill-opacity:1;stroke:#000000;stroke-width:0.01;stroke-miterlimit:4;stroke-dasharray:none;stroke-opacity:1"
       d="M 48.838582,13.094104 V 9.3226047 l 1.244368,2.452e-4 c 1.243912,2.45e-4 1.556932,0.00981 1.914096,0.058468 1.748742,0.2382576 2.863114,1.3459611 3.050249,3.0319961 0.08396,0.756534 0.01651,1.515412 -0.190135,2.139122 -0.157157,0.474341 -0.396314,0.8711 -0.733576,1.217 -0.564181,0.578635 -1.27472,0.899847 -2.316707,1.04731 -0.232717,0.03293 -0.3321,0.03553 -1.608172,0.04198 l -1.360123,0.0069 z m 2.885813,2.415773 c 0.792269,-0.146896 1.289455,-0.559337 1.536947,-1.274979 0.188221,-0.544264 0.227385,-1.336932 0.09809,-1.98534 -0.136618,-0.685106 -0.445606,-1.139105 -0.945581,-1.389351 -0.174205,-0.08719 -0.283917,-0.124801 -0.51602,-0.176889 -0.18271,-0.041 -0.215627,-0.04296 -0.839226,-0.04998 l -0.649055,-0.0073 v 2.467162 2.467162 l 0.566372,-0.0084 c 0.474681,-0.007 0.595858,-0.01383 0.748477,-0.04213 z"
       id="path49238" />
    <path
       style="fill:#000000;fill-opacity:1;stroke:#000000;stroke-width:0.01;stroke-miterlimit:4;stroke-dasharray:none;stroke-opacity:1"
       d="M 56.660327,13.092917 V 9.3226047 h 2.166276 2.166276 v 0.6531901 0.6531902 h -1.372526 -1.372526 v 0.835091 0.835091 h 1.281576 1.281575 v 0.644922 0.644922 h -1.281575 -1.281576 v 0.983919 0.98392 h 1.372526 1.372526 v 0.65319 0.65319 h -2.166276 -2.166276 z"
       id="path49538" />
    <path
       style="fill:#000000;fill-opacity:1;stroke:#000000;stroke-width:0.01;stroke-miterlimit:4;stroke-dasharray:none;stroke-opacity:1"
       d="M 69.464031,13.092479 V 9.3221667 h 2.166276 2.166277 v 0.6531901 0.6531902 h -1.372527 -1.372526 v 0.835091 0.835091 h 1.281576 1.281575 v 0.644922 0.644922 h -1.281575 -1.281576 v 0.983919 0.983919 h 1.372526 1.372527 v 0.65319 0.65319 h -2.166277 -2.166276 z"
       id="path49538-0" />
    <path
       style="fill:#000000;fill-opacity:1;stroke:#000000;stroke-width:0.01;stroke-miterlimit:4;stroke-dasharray:none;stroke-opacity:1"
       d="M 106.41903,13.092478 V 9.3221667 h 2.16627 2.16628 v 0.6531891 0.6531902 h -1.37253 -1.37252 v 0.835091 0.835091 h 1.28157 1.28158 v 0.644922 0.644922 h -1.28158 -1.28157 v 0.983919 0.983919 h 1.37252 1.37253 v 0.65319 0.65319 h -2.16628 -2.16627 z"
       id="path49538-0-0" />
    <path
       style="fill:#000000;fill-opacity:1;stroke:#000000;stroke-width:0.01;stroke-miterlimit:4;stroke-dasharray:none;stroke-opacity:1"
       d="m 64.200394,16.869595 c 0,0 -0.553953,-1.634901 -1.217113,-3.589977 -0.663157,-1.955077 -1.236572,-3.6454522 -1.274257,-3.7563899 l -0.06852,-0.1996339 h 0.803304 0.803302 l 0.236582,0.7493988 c 0.130387,0.413014 0.455335,1.443022 0.722699,2.288721 0.267361,0.845699 0.522491,1.674444 0.566954,1.841654 0.107,0.402387 0.237459,0.945252 0.272571,1.134225 0.03074,0.165462 0.03052,0.165526 0.06097,-0.01754 0.04179,-0.251239 0.192659,-0.89239 0.30953,-1.315467 0.03198,-0.115761 0.378378,-1.215492 0.769777,-2.443846 l 0.711636,-2.2371458 h 0.803934 0.802737 c 0,0 -2.421035,7.1177318 -2.512705,7.3880708 l -0.05253,0.15793 z"
       id="path51389"
       sodipodi:nodetypes="csscccssssssscccscc" />
    <path
       style="fill:#000000;fill-opacity:1;stroke:#000000;stroke-width:0.001;stroke-miterlimit:4;stroke-dasharray:none;stroke-opacity:1"
       d="M 75.396013,13.099323 V 9.3283167 h 0.795128 0.795126 v 3.1161953 3.116196 h 1.531789 1.531787 v 0.65481 0.654811 h -2.326915 -2.326915 z"
       id="path39832" />
    <path
       style="fill:#000000;fill-opacity:1;stroke:#000000;stroke-width:0.001;stroke-miterlimit:4;stroke-dasharray:none;stroke-opacity:1"
       d="m 84.28982,16.963047 c -0.439235,-0.02635 -0.888265,-0.119082 -1.223171,-0.252594 -0.998919,-0.39822 -1.643862,-1.214951 -1.900518,-2.406747 -0.07368,-0.342156 -0.108591,-0.663007 -0.118306,-1.087453 -0.02617,-1.142897 0.223848,-2.097113 0.727599,-2.777097 0.105817,-0.142834 0.414581,-0.4563642 0.544081,-0.552478 0.545494,-0.4048615 1.111181,-0.60174 1.909733,-0.6646529 0.225095,-0.017732 0.834515,-0.0071 1.035704,0.018063 0.56216,0.070327 1.008581,0.2138648 1.395767,0.4487836 0.658318,0.3994213 1.087964,0.9756313 1.344136,1.8026573 0.13716,0.442808 0.203242,0.892599 0.214739,1.46163 0.02659,1.315893 -0.294244,2.334114 -0.960147,3.047214 -0.341387,0.365582 -0.80106,0.644395 -1.31713,0.798898 -0.470292,0.140799 -1.060514,0.199295 -1.652487,0.163776 z m 0.577556,-1.332884 c 0.466217,-0.0427 0.779283,-0.178557 1.059204,-0.459648 0.247391,-0.248426 0.392332,-0.52249 0.501706,-0.94866 0.08628,-0.336164 0.123153,-0.67394 0.123253,-1.128931 6.9e-5,-0.311709 -0.01074,-0.499795 -0.04144,-0.720479 -0.07592,-0.545862 -0.257321,-1.008096 -0.515499,-1.313558 -0.206015,-0.243748 -0.510198,-0.414051 -0.864126,-0.483798 -0.318468,-0.06276 -0.736537,-0.05693 -1.036429,0.01446 -0.706876,0.168269 -1.158726,0.730144 -1.31306,1.632794 -0.05757,0.33669 -0.08246,0.920604 -0.0544,1.276042 0.04197,0.531699 0.153839,0.968576 0.328951,1.284673 0.164714,0.297328 0.440063,0.563623 0.709763,0.686421 0.306835,0.139707 0.702022,0.197325 1.102085,0.160683 z"
       id="path39871" />
    <path
       style="fill:#000000;fill-opacity:1;stroke:#000000;stroke-width:0.001;stroke-miterlimit:4;stroke-dasharray:none;stroke-opacity:1"
       d="M 89.801842,13.098728 V 9.3271268 l 1.43532,0.0046 c 1.541769,0.00494 1.521846,0.00422 1.873811,0.067843 0.570079,0.1030515 0.999995,0.3123753 1.309618,0.6376472 0.330272,0.346961 0.517732,0.779227 0.573948,1.32346 0.02032,0.196684 0.0079,0.624569 -0.02358,0.809049 -0.100277,0.588808 -0.323731,1.011917 -0.722368,1.367805 -0.265898,0.237384 -0.708731,0.450565 -1.129183,0.543593 -0.343284,0.07596 -0.647311,0.0998 -1.272228,0.0998 h -0.455099 v 1.3447 1.3447 h -0.795126 -0.795126 z m 2.525697,-0.24443 c 0.345448,-0.05398 0.587155,-0.156671 0.768998,-0.326701 0.144883,-0.135472 0.233955,-0.296542 0.280699,-0.50759 0.02865,-0.129382 0.02798,-0.462645 -0.0013,-0.598452 -0.08302,-0.386251 -0.308724,-0.623942 -0.691851,-0.728609 -0.19123,-0.05224 -0.25218,-0.05718 -0.78051,-0.06324 l -0.511572,-0.0059 v 1.131066 1.131066 l 0.406334,-0.0062 c 0.291915,-0.0045 0.440907,-0.01164 0.529111,-0.02543 z"
       id="path39910" />
    <path
       style="fill:#000000;fill-opacity:1;stroke:#000000;stroke-width:0.001;stroke-miterlimit:4;stroke-dasharray:none;stroke-opacity:1"
       d="M 96.442728,13.094531 V 9.3200535 l 1.088575,0.00209 1.088575,0.00209 0.893733,2.8880125 c 0.880819,2.846278 0.894019,2.887978 0.913839,2.885612 0.0192,-0.0023 0.0654,-0.140357 0.96739,-2.889906 l 0.94727,-2.8875068 1.08521,-1.731e-4 1.0852,-1.579e-4 v 3.7744468 3.774447 h -0.74046 -0.74047 l 0.003,-2.222087 c 0.003,-1.918818 0.005,-2.263274 0.017,-2.523877 0.023,-0.500575 0.0462,-0.982699 0.0519,-1.076937 l 0.005,-0.08888 h -0.0282 -0.0282 l -0.97252,2.953825 -0.97252,2.953825 -0.73232,0.0021 -0.73233,0.0021 -0.01278,-0.04345 c -0.007,-0.0239 -0.415888,-1.356861 -0.908576,-2.962137 l -0.8958,-2.918685 -0.02598,-0.0026 c -0.02551,-0.0025 -0.02598,-0.002 -0.02593,0.03307 5.8e-5,0.04266 0.028,0.608704 0.04522,0.91623 0.04842,0.864364 0.05363,1.176096 0.0538,3.222542 l 1.48e-4,1.754932 h -0.715203 -0.715201 z"
       id="path39949" />
    <path
       style="fill:#000000;fill-opacity:1;stroke:#000000;stroke-width:0.001;stroke-miterlimit:4;stroke-dasharray:none;stroke-opacity:1"
       d="M 112.35772,13.099323 V 9.3283167 h 1.00436 1.00437 l 1.64092,2.8297163 c 1.27824,2.204263 1.64586,2.829716 1.66326,2.829716 0.0215,0 0.022,-0.0086 0.014,-0.236784 -0.005,-0.130231 -0.0193,-0.457783 -0.0326,-0.727892 -0.0222,-0.44897 -0.0247,-0.671448 -0.0291,-2.592932 l -0.005,-2.1018243 h 0.714 0.71399 v 3.7710063 3.771006 l -1.01437,-4.24e-4 -1.01438,-4.23e-4 -1.64286,-2.858537 c -1.41966,-2.470156 -1.64644,-2.858537 -1.66918,-2.858537 -0.0316,0 -0.0317,0.0016 -0.0144,0.294856 0.007,0.111154 0.0276,0.56566 0.0468,1.010012 l 0.0349,0.807914 v 1.802558 1.802557 h -0.70743 -0.70743 z"
       id="path39988" />
    <path
       style="fill:#000000;fill-opacity:1;stroke:#000000;stroke-width:0.001;stroke-miterlimit:4;stroke-dasharray:none;stroke-opacity:1"
       d="m 122.27342,13.75998 v -3.11035 h -1.02899 -1.02899 V 9.9889738 9.3283167 h 2.84726 2.84725 V 9.9889738 10.64963 h -1.02314 -1.02314 v 3.11035 3.110349 h -0.79512 -0.79513 z"
       id="path40027" />
    <text
       xml:space="preserve"
       transform="matrix(0.26458333,0,0,0.26458333,9.4927076,5.7429479)"
       id="text45866"
       style="font-style:normal;font-weight:normal;font-size:40px;line-height:1.25;font-family:sans-serif;white-space:pre;shape-inside:url(#rect45868);fill:#000000;fill-opacity:1;stroke:none" />
  </g>
</svg>
