<?xml version="1.0" encoding="UTF-8" standalone="no"?>
<!-- Created with Inkscape (http://www.inkscape.org/) -->

<svg
   width="233.25856"
   height="55.594063"
   viewBox="0 0 61.716329 14.709263"
   version="1.1"
   id="svg5"
   inkscape:version="1.1.1 (3bf5ae0d25, 2021-09-20)"
   sodipodi:docname="logo3.svg"
   xmlns:inkscape="http://www.inkscape.org/namespaces/inkscape"
   xmlns:sodipodi="http://sodipodi.sourceforge.net/DTD/sodipodi-0.dtd"
   xmlns="http://www.w3.org/2000/svg"
   xmlns:svg="http://www.w3.org/2000/svg">
  <sodipodi:namedview
     id="namedview7"
     pagecolor="#505050"
     bordercolor="#eeeeee"
     borderopacity="1"
     inkscape:pageshadow="0"
     inkscape:pageopacity="0"
     inkscape:pagecheckerboard="0"
     inkscape:document-units="mm"
     showgrid="false"
     inkscape:zoom="2.8284272"
     inkscape:cx="80.079842"
     inkscape:cy="-22.097087"
     inkscape:window-width="2560"
     inkscape:window-height="1057"
     inkscape:window-x="-8"
     inkscape:window-y="-8"
     inkscape:window-maximized="1"
     inkscape:current-layer="layer1"
     inkscape:snap-grids="true"
     inkscape:snap-text-baseline="false"
     units="px"
     height="100px"
     showguides="true"
     inkscape:guide-bbox="true"
     inkscape:object-nodes="true"
     inkscape:snap-nodes="true"
     inkscape:object-paths="false"
     inkscape:snap-bbox="true"
     inkscape:bbox-paths="true"
     inkscape:snap-to-guides="true">
    <sodipodi:guide
       position="38.189475,14.709263"
       orientation="0,-1"
       id="guide834" />
    <sodipodi:guide
       position="49.905904,1.9868215e-07"
       orientation="0,-1"
       id="guide836" />
    <sodipodi:guide
       position="46.327833,3.5770615"
       orientation="1,0"
       id="guide838" />
    <sodipodi:guide
       position="45.041598,11.131432"
       orientation="0,-1"
       id="guide840" />
    <sodipodi:guide
       position="44.714193,3.5783845"
       orientation="0,-1"
       id="guide842" />
  </sodipodi:namedview>
  <defs
     id="defs2" />
  <g
     inkscape:label="Layer 1"
     inkscape:groupmode="layer"
     id="layer1"
     transform="translate(-9.4927076,-5.7429484)">
    <text
       xml:space="preserve"
       style="font-style:normal;font-weight:normal;font-size:10.5833px;line-height:1.25;font-family:sans-serif;letter-spacing:2.64583px;fill:#000000;fill-opacity:1;stroke:none;stroke-width:0.264583"
       x="5.7101765"
       y="16.901379"
       id="text29641"><tspan
         id="tspan29639"
         style="font-style:normal;font-variant:normal;font-weight:300;font-stretch:normal;font-size:10.5833px;font-family:'Open Sans';-inkscape-font-specification:'Open Sans Light';fill:#000000;fill-opacity:1;stroke-width:0.264583"
         x="5.7101765"
         y="16.901379"
         sodipodi:role="line" /></text>
    <text
       xml:space="preserve"
       style="font-style:normal;font-weight:normal;font-size:10.5833px;line-height:1.25;font-family:sans-serif;fill:#000000;fill-opacity:1;stroke:none;stroke-width:0.264583"
       x="47.8708"
       y="16.901445"
       id="text30929"><tspan
         sodipodi:role="line"
         id="tspan30927"
         style="font-style:normal;font-variant:normal;font-weight:bold;font-stretch:normal;font-family:'Open Sans';-inkscape-font-specification:'Open Sans Bold';stroke-width:0.264583"
         x="47.8708"
         y="16.901445" /></text>
    <rect
       style="fill:#000000;fill-opacity:0;stroke:#000000;stroke-width:1.57;stroke-miterlimit:4;stroke-dasharray:none;stroke-opacity:1"
       id="rect33406"
       width="24.289005"
       height="13.139262"
       x="46.135029"
       y="6.5279484" />
    <path
       style="fill:none;stroke:#000000;stroke-width:0.53;stroke-linecap:butt;stroke-linejoin:miter;stroke-miterlimit:4;stroke-dasharray:none;stroke-opacity:1"
       d="M 15.23431,9.5849172 12.560309,16.170917 9.8863102,9.5849172 Z"
       id="path8353"
       sodipodi:nodetypes="cccc" />
    <ellipse
       style="fill:none;fill-opacity:0;stroke:#000000;stroke-width:0.527338;stroke-miterlimit:4;stroke-dasharray:none;stroke-opacity:1"
       id="path32149"
       cx="22.28516"
       cy="13.097341"
       rx="3.513"
       ry="3.5131388" />
    <path
       style="fill:none;stroke:#000000;stroke-width:0.531;stroke-linecap:butt;stroke-linejoin:miter;stroke-miterlimit:4;stroke-dasharray:none;stroke-opacity:1"
       d="M 30.32381,16.874917 V 9.3199172"
       id="path33878"
       sodipodi:nodetypes="cc" />
    <path
       style="fill:none;stroke:#000000;stroke-width:0.53;stroke-linecap:butt;stroke-linejoin:miter;stroke-miterlimit:4;stroke-dasharray:none;stroke-opacity:1"
       d="m 35.636309,9.8103082 4.999001,3.2871558 -4.999437,3.286844 z"
       id="path36348"
       sodipodi:nodetypes="cccc" />
    <path
       style="fill:#000000;fill-opacity:1;stroke:#000000;stroke-width:0.01;stroke-miterlimit:4;stroke-dasharray:none;stroke-opacity:1"
       d="M 48.837259,13.09728 V 9.3257799 l 1.244367,2.452e-4 c 1.243913,2.45e-4 1.556933,0.00981 1.914097,0.058468 1.748742,0.2382575 2.863114,1.3459619 3.050249,3.0319969 0.08396,0.756534 0.01651,1.515412 -0.190135,2.139122 -0.157157,0.474341 -0.396314,0.871099 -0.733576,1.217 -0.564182,0.578635 -1.27472,0.899846 -2.316707,1.047309 -0.232717,0.03294 -0.3321,0.03553 -1.608172,0.04198 l -1.360123,0.0069 z m 2.885813,2.415772 c 0.792269,-0.146895 1.289455,-0.559336 1.536946,-1.274978 0.188222,-0.544265 0.227386,-1.336932 0.09809,-1.98534 -0.136618,-0.685106 -0.445606,-1.139105 -0.945581,-1.389351 -0.174205,-0.08719 -0.283917,-0.124801 -0.51602,-0.176889 -0.182711,-0.041 -0.215627,-0.04296 -0.839227,-0.04997 l -0.649054,-0.0073 v 2.467161 2.467162 l 0.566372,-0.0084 c 0.474681,-0.007 0.595858,-0.01383 0.748477,-0.04213 z"
       id="path49238" />
    <path
       style="fill:#000000;fill-opacity:1;stroke:#000000;stroke-width:0.01;stroke-miterlimit:4;stroke-dasharray:none;stroke-opacity:1"
       d="M 56.659004,13.096093 V 9.3257799 h 2.166276 2.166276 v 0.65319 0.6531911 H 59.61903 58.246504 v 0.835091 0.835091 h 1.281575 1.281576 v 0.644922 0.644922 h -1.281576 -1.281575 v 0.983919 0.983919 h 1.372526 1.372526 v 0.65319 0.653191 H 58.82528 56.659004 Z"
       id="path49538" />
    <path
       style="fill:#000000;fill-opacity:1;stroke:#000000;stroke-width:0.01;stroke-miterlimit:4;stroke-dasharray:none;stroke-opacity:1"
       d="m 64.199071,16.87277 c 0,0 -0.553953,-1.6349 -1.217113,-3.589976 -0.663157,-1.955077 -1.236572,-3.6454532 -1.274257,-3.7563907 l -0.06852,-0.1996339 h 0.803304 0.803301 l 0.236583,0.7493996 c 0.130387,0.413014 0.455335,1.443022 0.722699,2.288721 0.267361,0.845699 0.522491,1.674444 0.566954,1.841654 0.107,0.402387 0.237458,0.945252 0.272571,1.134225 0.03074,0.165462 0.03052,0.165526 0.06097,-0.01754 0.04179,-0.25124 0.192658,-0.89239 0.30953,-1.315467 0.03198,-0.115761 0.378378,-1.215492 0.769776,-2.443846 l 0.711632,-2.2371478 h 0.803933 0.802738 c 0,0 -2.421035,7.1177328 -2.512705,7.3880718 l -0.05253,0.157929 z"
       id="path51389"
       sodipodi:nodetypes="csscccssssssscccscc" />
  </g>
</svg>
