<?xml version="1.0" encoding="UTF-8" standalone="no"?>
<!-- Created with Inkscape (http://www.inkscape.org/) -->

<svg
   width="233.25856"
   height="55.594063"
   viewBox="0 0 61.716329 14.709263"
   version="1.1"
   id="svg5"
   inkscape:version="1.1.1 (3bf5ae0d25, 2021-09-20)"
   sodipodi:docname="logo3.svg"
   xmlns:inkscape="http://www.inkscape.org/namespaces/inkscape"
   xmlns:sodipodi="http://sodipodi.sourceforge.net/DTD/sodipodi-0.dtd"
   xmlns="http://www.w3.org/2000/svg"
   xmlns:svg="http://www.w3.org/2000/svg">
  <sodipodi:namedview
     id="namedview7"
     pagecolor="#505050"
     bordercolor="#eeeeee"
     borderopacity="1"
     inkscape:pageshadow="0"
     inkscape:pageopacity="0"
     inkscape:pagecheckerboard="0"
     inkscape:document-units="mm"
     showgrid="false"
     inkscape:zoom="5.6568543"
     inkscape:cx="101.38143"
     inkscape:cy="26.604893"
     inkscape:window-width="2560"
     inkscape:window-height="1057"
     inkscape:window-x="-8"
     inkscape:window-y="-8"
     inkscape:window-maximized="1"
     inkscape:current-layer="layer1"
     inkscape:snap-grids="true"
     inkscape:snap-text-baseline="false"
     units="px"
     height="100px"
     showguides="true"
     inkscape:guide-bbox="true"
     inkscape:object-nodes="true"
     inkscape:snap-nodes="true"
     inkscape:object-paths="false"
     inkscape:snap-bbox="true"
     inkscape:bbox-paths="true"
     inkscape:snap-to-guides="true">
    <sodipodi:guide
       position="31.610074,7.328289"
       orientation="0,-1"
       id="guide1042" />
  </sodipodi:namedview>
  <defs
     id="defs2" />
  <g
     inkscape:label="Layer 1"
     inkscape:groupmode="layer"
     id="layer1"
     transform="translate(-9.4927076,-5.7429484)">
    <text
       xml:space="preserve"
       style="font-style:normal;font-weight:normal;font-size:10.5833px;line-height:1.25;font-family:sans-serif;letter-spacing:2.64583px;fill:#000000;fill-opacity:1;stroke:none;stroke-width:0.264583"
       x="5.7101765"
       y="16.901379"
       id="text29641"><tspan
         id="tspan29639"
         style="font-style:normal;font-variant:normal;font-weight:300;font-stretch:normal;font-size:10.5833px;font-family:'Open Sans';-inkscape-font-specification:'Open Sans Light';fill:#000000;fill-opacity:1;stroke-width:0.264583"
         x="5.7101765"
         y="16.901379"
         sodipodi:role="line" /></text>
    <text
       xml:space="preserve"
       style="font-style:normal;font-weight:normal;font-size:10.5833px;line-height:1.25;font-family:sans-serif;fill:#000000;fill-opacity:1;stroke:none;stroke-width:0.264583"
       x="47.8708"
       y="16.901445"
       id="text30929"><tspan
         sodipodi:role="line"
         id="tspan30927"
         style="font-style:normal;font-variant:normal;font-weight:bold;font-stretch:normal;font-family:'Open Sans';-inkscape-font-specification:'Open Sans Bold';stroke-width:0.264583"
         x="47.8708"
         y="16.901445" /></text>
    <rect
       style="fill:#000000;fill-opacity:0;stroke:#000000;stroke-width:1.57;stroke-miterlimit:4;stroke-dasharray:none;stroke-opacity:1"
       id="rect33406"
       width="24.289005"
       height="13.139262"
       x="46.135029"
       y="6.5279484" />
    <path
       style="fill:none;stroke:#000000;stroke-width:0.53;stroke-linecap:butt;stroke-linejoin:miter;stroke-miterlimit:4;stroke-dasharray:none;stroke-opacity:1"
       d="M 15.23431,9.6113755 12.560309,16.197375 9.8863102,9.6113755 Z"
       id="path8353"
       sodipodi:nodetypes="cccc" />
    <ellipse
       style="fill:none;fill-opacity:0;stroke:#000000;stroke-width:0.527338;stroke-miterlimit:4;stroke-dasharray:none;stroke-opacity:1"
       id="path32149"
       cx="22.28516"
       cy="13.123799"
       rx="3.513"
       ry="3.5131388" />
    <path
       style="fill:none;stroke:#000000;stroke-width:0.531;stroke-linecap:butt;stroke-linejoin:miter;stroke-miterlimit:4;stroke-dasharray:none;stroke-opacity:1"
       d="M 30.32381,16.901375 V 9.3463755"
       id="path33878"
       sodipodi:nodetypes="cc" />
    <path
       style="fill:none;stroke:#000000;stroke-width:0.53;stroke-linecap:butt;stroke-linejoin:miter;stroke-miterlimit:4;stroke-dasharray:none;stroke-opacity:1"
       d="m 35.636309,9.8367665 4.999001,3.2871555 -4.999437,3.286844 z"
       id="path36348"
       sodipodi:nodetypes="cccc" />
    <path
       style="fill:#000000;fill-opacity:1;stroke:#000000;stroke-width:0.0377953;stroke-miterlimit:4;stroke-dasharray:none;stroke-opacity:1"
       d="M 163,33.129484 V 18.875 l 4.70312,9.27e-4 c 4.7014,9.26e-4 5.88447,0.03706 7.23438,0.220983 6.60942,0.900501 10.82122,5.087094 11.5285,11.45951 0.31735,2.859342 0.0624,5.727541 -0.71862,8.084873 -0.59398,1.792784 -1.49788,3.292343 -2.77257,4.599684 -2.13234,2.186965 -4.81784,3.400994 -8.75606,3.958335 -0.87956,0.124476 -1.25518,0.134282 -6.07813,0.158666 L 163,47.383968 Z m 10.90701,9.13048 c 2.9944,-0.555195 4.87353,-2.114028 5.80893,-4.818817 0.71139,-2.057062 0.85941,-5.05297 0.37072,-7.503647 -0.51635,-2.589375 -1.68418,-4.305279 -3.57385,-5.251091 -0.65841,-0.329546 -1.07307,-0.471687 -1.95031,-0.668557 -0.69056,-0.154974 -0.81497,-0.162382 -3.17188,-0.188881 l -2.45312,-0.02758 v 9.324706 9.324707 l 2.14062,-0.03161 c 1.79407,-0.0265 2.25206,-0.05227 2.82889,-0.159225 z"
       id="path49238"
       transform="matrix(0.26458333,0,0,0.26458333,5.7101765,4.3563755)" />
    <path
       style="fill:#000000;fill-opacity:1;stroke:#000000;stroke-width:0.0377953;stroke-miterlimit:4;stroke-dasharray:none;stroke-opacity:1"
       d="m 192.5625,33.125 v -14.25 h 8.1875 8.1875 v 2.46875 2.46875 h -5.1875 -5.1875 v 3.15625 3.15625 h 4.84375 4.84375 V 32.5625 35 h -4.84375 -4.84375 v 3.71875 3.71875 h 5.1875 5.1875 v 2.46875 2.46875 h -8.1875 -8.1875 z"
       id="path49538"
       transform="matrix(0.26458333,0,0,0.26458333,5.7101765,4.3563755)" />
    <path
       style="fill:#000000;fill-opacity:1;stroke:#000000;stroke-width:0.0377953;stroke-miterlimit:4;stroke-dasharray:none;stroke-opacity:1"
       d="m 221.06039,47.399056 c 0,0 -2.09368,-6.17915 -4.60011,-13.568416 -2.50642,-7.389266 -4.67366,-13.778086 -4.81609,-14.197378 l -0.25897,-0.754522 h 3.03611 3.0361 l 0.89417,2.832373 c 0.4928,1.560997 1.72095,5.453941 2.73146,8.650284 1.0105,3.196344 1.97477,6.328606 2.14282,6.960583 0.40441,1.520833 0.89748,3.572605 1.03019,4.286835 0.11619,0.625366 0.11534,0.62561 0.23045,-0.06629 0.15796,-0.949567 0.72816,-3.372812 1.16988,-4.971844 0.12087,-0.437523 1.43009,-4.593985 2.90939,-9.236583 l 2.68963,-8.455358 h 3.03849 3.03397 c 0,0 -9.15037,26.901664 -9.49684,27.923416 l -0.19854,0.5969 z"
       id="path51389"
       transform="matrix(0.26458333,0,0,0.26458333,5.7101765,4.3563755)"
       sodipodi:nodetypes="csscccssssssscccscc" />
  </g>
</svg>
